<svg width="1728" height="196" viewBox="0 0 1728 196" fill="none" xmlns="http://www.w3.org/2000/svg">
<g clip-path="url(#clip0_2140_270)">
<rect width="1756" height="196" transform="translate(-14)" fill="#3B3B3B"/>
<path d="M-6.92607 -35.3953C43.2155 -51.569 96.9753 -24.033 113.149 26.1084C118.725 43.3955 119.104 61.1128 115.154 77.5714C127.977 88.6198 138.022 103.219 143.598 120.506C159.772 170.648 132.235 224.408 82.0932 240.582C64.8059 246.158 47.0889 246.537 30.6301 242.586C19.5817 255.409 4.98265 265.455 -12.3045 271.031C-62.4461 287.204 -116.205 259.667 -132.379 209.525C-137.955 192.238 -138.335 174.521 -134.385 158.063C-147.207 147.014 -157.252 132.415 -162.828 115.128C-179.001 64.9863 -151.465 11.2275 -101.324 -4.9464C-84.0368 -10.5225 -66.3196 -10.9022 -49.8611 -6.95231C-38.8128 -19.7751 -24.2131 -29.8191 -6.92607 -35.3953Z" fill="#ED80B8"/>
<path fill-rule="evenodd" clip-rule="evenodd" d="M291.316 -200.008C292.224 -197.711 294.85 -189.356 297.147 -181.441C309.895 -137.487 310.525 -135.705 312.744 -137.226C313.77 -137.932 322.728 -148.559 332.646 -160.843C342.563 -173.126 351.891 -184.597 353.37 -186.343C359.869 -193.992 389.333 -173.787 406.074 -150.203L411.613 -142.398L409.023 -139.108C407.6 -137.298 401.839 -131.023 396.223 -125.16C383.734 -112.132 370.931 -97.4112 370.589 -95.6826C370.411 -94.7848 379.604 -92.7835 401.439 -88.961C437.301 -82.6775 433.56 -85.0543 434.243 -68.1522C434.86 -52.9442 430.02 -27.9283 423.582 -13.0488C416.291 3.80362 419.77 2.8894 389.519 -4.12453C354.669 -12.2054 357.193 -15.1666 370.299 18.4015C373.246 25.9525 376.579 35.0474 377.702 38.6116L379.741 45.0908L373.395 49.5519C354.328 62.9499 331.142 71.1752 307.756 72.8293L299.418 73.4184L297.898 69.8782C296.404 66.3885 291.435 50.1668 285.587 29.6605C281.522 15.3974 281.445 15.4152 267.493 33.1392C260.894 41.5169 254.331 49.5276 252.901 50.9423C251.472 52.3569 249.755 54.5119 249.08 55.7347C248.404 56.9615 246.705 58.9599 245.306 60.1831L242.762 62.4046L233.4 57.5828C214.349 47.7638 195.364 30.9162 184.532 14.2076L179.114 5.85085L194.113 -10.7822C202.367 -19.9338 212.286 -30.8601 216.157 -35.0632C225.625 -45.3432 226.469 -44.7815 193.953 -49.8559C162.59 -54.747 161.524 -55.065 160.137 -59.9722C157.749 -68.4277 166.858 -114.467 172.648 -123.193C176.093 -128.389 176.592 -128.377 199.841 -122.396C222.474 -116.57 243.2 -112.211 244.388 -113.02C245.262 -113.611 244.196 -117.587 240.745 -126.619C239.481 -129.92 237.358 -135.832 236.027 -139.754C234.695 -143.676 230.908 -153.703 227.609 -162.035C224.311 -170.367 221.816 -178.223 222.068 -179.492C223.515 -186.798 257.291 -200.387 280.868 -203.15L289.657 -204.18L291.316 -200.008ZM377.993 -77.8853C291.829 -93.0036 289.766 -92.6804 258.28 -59.0062C249.98 -50.1349 240.987 -40.5338 238.289 -37.6768C235.591 -34.8199 230.775 -29.6693 227.585 -26.2274C224.4 -22.7888 217.01 -14.8514 211.166 -8.58918C199.763 3.63426 199.043 4.9592 201.379 9.42945C205.108 16.568 229.082 37.7043 237.389 41.1744C241.783 43.0145 239.053 45.8898 270.961 5.79624C279.93 -5.47859 286.221 -12.7665 286.863 -12.6393C287.646 -12.4843 291.107 -2.62418 294.614 9.45251C304.403 43.1367 306.668 50.5156 308.055 53.1744L309.574 56.0894L316.98 55.0363C331.99 52.8951 357.637 42.5427 360.652 37.4097C361.416 36.1058 360.403 32.1071 357.621 25.4397C355.324 19.9371 353.516 15.0494 353.608 14.5866C353.699 14.1238 352.544 10.6806 351.043 6.94277C344.211 -10.026 338.3 -26.3687 338.176 -28.6252C338.04 -31.0033 386.706 -21.6088 400.516 -16.5886C406.529 -14.4032 408.258 -16.2721 412.268 -29.3061C419.505 -52.8197 419.561 -72.0214 412.391 -72.3027C410.571 -72.3711 395.092 -74.8857 377.993 -77.8853Z" fill="#FFFF00"/>
<path d="M377.993 -77.8853C291.829 -93.0036 289.766 -92.6804 258.28 -59.0062C249.98 -50.1349 240.987 -40.5338 238.289 -37.6768C235.591 -34.8199 230.775 -29.6693 227.585 -26.2274C224.4 -22.7888 217.01 -14.8514 211.166 -8.58918C199.763 3.63426 199.043 4.9592 201.379 9.42945C205.108 16.568 229.082 37.7043 237.389 41.1744C241.783 43.0145 239.053 45.8898 270.961 5.79624C279.93 -5.47859 286.221 -12.7665 286.863 -12.6393C287.646 -12.4843 291.107 -2.62418 294.614 9.45251C304.403 43.1367 306.668 50.5156 308.055 53.1744L309.574 56.0894L316.98 55.0363C331.99 52.8951 357.637 42.5427 360.652 37.4097C361.416 36.1058 360.403 32.1071 357.621 25.4397C355.324 19.9371 353.516 15.0494 353.608 14.5866C353.699 14.1238 352.544 10.6806 351.043 6.94277C344.211 -10.026 338.3 -26.3687 338.176 -28.6252C338.04 -31.0033 386.706 -21.6088 400.516 -16.5886C406.529 -14.4032 408.258 -16.2721 412.268 -29.3061C419.505 -52.8197 419.561 -72.0214 412.391 -72.3027C410.571 -72.3711 395.092 -74.8857 377.993 -77.8853Z" fill="#FFFF00"/>
<path d="M329.471 136.03C339.151 110.16 371.905 102.259 392.316 120.87L407.814 135.001C416.663 143.07 428.727 146.629 440.539 144.656L461.225 141.2C488.469 136.648 511.689 161.063 505.777 188.045L501.288 208.532C498.725 220.23 501.674 232.457 509.289 241.7L522.626 257.887C540.189 279.205 530.655 311.522 504.333 319.892L484.346 326.248C472.933 329.877 463.819 338.546 459.622 349.762L452.271 369.405C442.591 395.275 409.837 403.176 389.427 384.565L373.929 370.434C365.08 362.365 353.016 358.806 341.204 360.779L320.517 364.235C293.273 368.787 270.053 344.372 275.965 317.39L280.455 296.903C283.018 285.205 280.068 272.978 272.453 263.735L259.117 247.548C241.553 226.23 251.087 193.913 277.41 185.542L297.397 179.187C308.809 175.557 317.924 166.889 322.121 155.673L329.471 136.03Z" fill="#3BC89C"/>
<path d="M650.534 -166.368C700.675 -182.542 754.435 -155.006 770.609 -104.864C776.185 -87.5771 776.564 -69.8599 772.614 -53.4012C785.437 -42.3529 795.482 -27.7538 801.058 -10.4666C817.232 39.6752 789.695 93.4355 739.553 109.609C722.266 115.185 704.549 115.564 688.09 111.614C677.041 124.437 662.442 134.482 645.155 140.058C595.014 156.232 541.254 128.694 525.081 78.5527C519.505 61.2656 519.125 43.5486 523.075 27.0901C510.252 16.0417 500.208 1.44194 494.632 -15.845C478.459 -65.9864 505.995 -119.745 556.136 -135.919C573.423 -141.495 591.14 -141.875 607.599 -137.925C618.647 -150.748 633.247 -160.792 650.534 -166.368Z" fill="#E67107"/>
<path d="M906.837 226.304C897.677 220.416 894.939 208.126 901.874 199.731C911.48 188.103 922.649 177.82 935.089 169.185C952.94 156.793 973.057 148.039 994.292 143.422C1015.53 138.804 1037.46 138.415 1058.85 142.276C1080.23 146.136 1100.65 154.171 1118.93 165.921C1137.21 177.672 1152.99 192.908 1165.39 210.759C1177.78 228.61 1186.53 248.728 1191.15 269.962C1195.77 291.197 1196.16 313.133 1192.29 334.518C1189.6 349.42 1184.89 363.851 1178.3 377.417C1173.54 387.212 1161.22 389.825 1152.06 383.937L1114.53 359.812C1105.37 353.924 1102.99 341.747 1106.51 331.443C1107.83 327.582 1108.86 323.619 1109.58 319.586C1111.48 309.063 1111.29 298.269 1109.02 287.819C1106.75 277.37 1102.44 267.471 1096.34 258.686C1090.24 249.902 1082.48 242.405 1073.48 236.622C1064.49 230.84 1054.44 226.886 1043.92 224.987C1033.39 223.087 1022.6 223.279 1012.15 225.551C1001.7 227.823 991.801 232.13 983.016 238.228C979.65 240.565 976.472 243.147 973.508 245.95C965.595 253.431 953.527 256.316 944.367 250.428L906.837 226.304Z" fill="#49A7FF"/>
<path fill-rule="evenodd" clip-rule="evenodd" d="M677.25 214.58C678.742 214.699 683.989 215.504 688.908 216.371C716.226 221.186 717.363 221.32 717.129 219.706C717.02 218.959 713.633 211.245 709.603 202.567C705.572 193.889 701.826 185.748 701.271 184.477C698.848 178.897 717.714 168.271 735.019 165.469L740.745 164.542L741.842 166.83C742.447 168.088 744.32 172.9 746.008 177.522C749.756 187.798 754.341 198.697 755.19 199.346C755.631 199.682 759.177 195.217 767.094 184.361C780.098 166.533 777.805 167.932 787.182 172.079C795.619 175.809 807.933 185.129 814.306 192.609C821.525 201.079 821.957 198.942 810.055 213.523C796.344 230.32 795.408 228.155 817.171 230C822.066 230.415 827.904 231.033 830.143 231.375L834.213 231.998L834.943 236.642C837.134 250.596 835.411 265.407 830.059 278.57L828.151 283.263L825.818 283.144C823.521 283.024 813.369 281.39 800.651 279.09C791.805 277.489 791.794 277.535 797.706 289.863C800.499 295.692 803.102 301.403 803.49 302.559C803.877 303.714 804.59 305.225 805.075 305.919C805.562 306.614 806.195 308.072 806.486 309.161L807.014 311.138L801.889 314.942C791.455 322.68 777.215 328.504 765.231 329.93L759.237 330.643L754.199 318.038C751.427 311.102 748.135 302.785 746.883 299.556C743.822 291.657 744.353 291.349 732.901 307.68C721.856 323.433 721.399 323.928 718.358 323.37C713.121 322.409 690.512 305.147 687.313 299.665C685.407 296.402 685.547 296.134 695.016 285.086C704.235 274.332 712.146 264.223 712.024 263.36C711.936 262.727 709.488 262.243 703.652 261.706C701.519 261.512 697.736 261.086 695.246 260.762C692.757 260.438 686.29 259.818 680.876 259.385C675.462 258.952 670.522 258.209 669.898 257.732C666.311 254.992 667.948 232.987 672.748 219.423L674.537 214.366L677.25 214.58ZM766.851 200.076C735.594 242.905 735.218 244.113 745.119 270.242C747.726 277.128 750.545 284.587 751.378 286.818C752.21 289.05 753.725 293.046 754.744 295.701C755.763 298.353 758.106 304.495 759.95 309.348C763.551 318.818 764.079 319.564 767.135 319.488C772.015 319.368 789.921 311.977 794.03 308.386C796.205 306.488 797.039 308.741 783.759 280.667C780.024 272.774 777.741 267.404 777.982 267.088C778.275 266.704 784.564 267.457 792.071 268.777C813.011 272.457 817.63 273.197 819.447 273.153L821.439 273.107L822.846 268.796C825.694 260.059 826.918 243.341 824.932 240.329C824.427 239.565 821.981 239.047 817.61 238.778C814.003 238.556 810.861 238.233 810.634 238.059C810.407 237.886 808.225 237.594 805.79 237.411C794.734 236.591 784.263 235.438 783.003 234.903C781.673 234.341 799.792 210.379 806.215 204.209C809.011 201.523 808.457 200.082 802.438 194.417C791.582 184.194 781.152 179.031 779.082 182.857C778.559 183.828 773.053 191.576 766.851 200.076Z" fill="#ED80B8"/>
<path d="M766.851 200.076C735.594 242.905 735.218 244.113 745.119 270.242C747.726 277.128 750.545 284.587 751.378 286.818C752.21 289.05 753.725 293.046 754.744 295.701C755.763 298.353 758.106 304.495 759.95 309.348C763.551 318.818 764.079 319.564 767.135 319.488C772.015 319.368 789.921 311.977 794.03 308.386C796.205 306.488 797.039 308.741 783.759 280.667C780.024 272.774 777.741 267.404 777.982 267.088C778.275 266.704 784.564 267.457 792.071 268.777C813.011 272.457 817.63 273.197 819.447 273.153L821.439 273.107L822.846 268.796C825.694 260.059 826.918 243.341 824.932 240.329C824.427 239.565 821.981 239.047 817.61 238.778C814.003 238.556 810.861 238.233 810.634 238.059C810.407 237.886 808.225 237.594 805.79 237.411C794.734 236.591 784.263 235.438 783.003 234.903C781.673 234.341 799.792 210.379 806.215 204.209C809.011 201.523 808.457 200.082 802.438 194.417C791.582 184.194 781.152 179.031 779.082 182.857C778.559 183.828 773.053 191.576 766.851 200.076Z" fill="#ED80B8"/>
<circle cx="1052.08" cy="-40.0911" r="144.993" fill="#FDBC28"/>
<path d="M818.402 36.8185C826.298 15.715 853.018 9.26935 869.668 24.4513L882.31 35.979C889.529 42.5614 899.37 45.4648 909.006 43.855L925.881 41.0356C948.106 37.3226 967.048 57.2396 962.225 79.2498L958.563 95.9623C956.472 105.505 958.878 115.48 965.09 123.02L975.969 136.224C990.297 153.615 982.519 179.977 961.046 186.806L944.742 191.991C935.432 194.951 927.997 202.022 924.573 211.172L918.577 227.196C910.681 248.299 883.961 254.745 867.311 239.563L854.669 228.035C847.45 221.453 837.608 218.55 827.973 220.16L811.097 222.979C788.873 226.692 769.931 206.775 774.754 184.765L778.416 168.052C780.507 158.509 778.101 148.535 771.889 140.995L761.01 127.79C746.682 110.4 754.459 84.0371 775.932 77.2087L792.237 72.0239C801.547 69.0634 808.982 61.9922 812.406 52.8425L818.402 36.8185Z" fill="#3BC89C"/>
<path d="M498.145 94.2197C599.978 93.1962 602.287 93.9509 632.04 138.13C639.883 149.769 648.383 162.367 650.939 166.121C653.493 169.874 658.046 176.63 661.055 181.14C664.058 185.645 671.033 196.053 676.553 204.267C687.323 220.298 687.897 221.939 684.364 226.582C678.723 233.996 647.171 253.522 636.969 255.91C631.573 257.177 634.16 260.958 605.144 209.405C596.989 194.908 591.151 185.445 590.389 185.469C589.46 185.5 583.61 196.057 577.284 209.124C559.635 245.567 555.627 253.531 553.528 256.294L551.229 259.323L542.923 256.738C526.093 251.489 498.609 234.916 496.121 228.515C495.492 226.89 497.417 222.534 501.881 215.478C505.565 209.658 508.569 204.442 508.555 203.895C508.538 203.352 510.52 199.653 512.956 195.686C524.03 177.682 533.93 160.215 534.502 157.674C535.093 154.998 477.431 156.547 460.615 159.662C453.295 161.019 451.662 158.571 449.538 143.007C445.7 114.924 449.292 93.087 457.58 94.1121C459.689 94.3754 477.942 94.4221 498.145 94.2197Z" fill="#49A7FF"/>
<path fill-rule="evenodd" clip-rule="evenodd" d="M117.078 145.681C119.278 145.857 127.011 147.043 134.262 148.321C174.525 155.418 176.202 155.615 175.856 153.236C175.695 152.136 170.704 140.766 164.763 127.975C158.823 115.184 153.301 103.186 152.483 101.313C148.911 93.0881 176.719 77.4265 202.224 73.2963L210.664 71.9307L212.281 75.3029C213.172 77.1568 215.933 84.2485 218.421 91.0612C223.946 106.207 230.704 122.272 231.955 123.227C232.605 123.724 237.831 117.142 249.499 101.141C268.666 74.8646 265.286 76.9276 279.107 83.0396C291.543 88.5362 309.693 102.273 319.086 113.298C329.725 125.782 330.362 122.633 312.82 144.123C292.611 168.881 291.231 165.69 323.308 168.409C330.523 169.021 339.128 169.932 342.428 170.436L348.426 171.354L349.503 178.199C352.732 198.765 350.192 220.595 342.304 239.997L339.491 246.914L336.054 246.738C332.667 246.561 317.704 244.153 298.959 240.762C285.921 238.402 285.905 238.471 294.619 256.64C298.735 265.232 302.572 273.65 303.143 275.353C303.714 277.056 304.765 279.282 305.48 280.306C306.197 281.331 307.13 283.48 307.56 285.084L308.338 287.999L300.784 293.605C285.405 305.01 264.418 313.594 246.754 315.695L237.919 316.746L230.493 298.168C226.408 287.945 221.556 275.687 219.711 270.927C215.199 259.286 215.982 258.831 199.102 282.901C182.824 306.12 182.149 306.849 177.668 306.027C169.948 304.61 136.625 279.168 131.91 271.088C129.101 266.279 129.308 265.883 143.263 249.6C156.851 233.749 168.513 218.849 168.332 217.578C168.202 216.645 164.594 215.932 155.993 215.141C152.849 214.854 147.273 214.227 143.604 213.749C139.935 213.271 130.402 212.357 122.423 211.719C114.444 211.081 107.162 209.985 106.243 209.284C100.956 205.245 103.369 172.811 110.443 152.82L113.08 145.367L117.078 145.681ZM249.141 124.303C203.072 187.429 202.518 189.21 217.111 227.722C220.954 237.871 225.108 248.865 226.335 252.153C227.563 255.442 229.795 261.332 231.298 265.246C232.8 269.155 236.252 278.207 238.97 285.36C244.278 299.318 245.056 300.417 249.56 300.306C256.753 300.129 283.145 289.235 289.2 283.942C292.407 281.144 293.636 284.466 274.063 243.086C268.557 231.453 265.192 223.538 265.547 223.073C265.98 222.507 275.249 223.617 286.313 225.563C317.177 230.986 323.985 232.077 326.663 232.013L329.599 231.944L331.673 225.591C335.87 212.713 337.674 188.072 334.747 183.632C334.002 182.506 330.397 181.743 323.956 181.346C318.639 181.02 314.008 180.543 313.673 180.288C313.338 180.032 310.122 179.601 306.534 179.332C290.238 178.124 274.806 176.425 272.948 175.635C270.988 174.807 297.694 139.49 307.16 130.396C311.281 126.436 310.464 124.313 301.594 115.963C285.593 100.896 270.22 93.286 267.17 98.9241C266.398 100.356 258.283 111.776 249.141 124.303Z" fill="#FDBC28"/>
<path d="M249.141 124.303C203.072 187.429 202.518 189.21 217.111 227.722C220.954 237.871 225.108 248.865 226.335 252.153C227.563 255.442 229.795 261.332 231.298 265.246C232.8 269.155 236.252 278.207 238.97 285.36C244.278 299.318 245.056 300.417 249.56 300.306C256.753 300.129 283.145 289.235 289.2 283.942C292.407 281.144 293.636 284.466 274.063 243.086C268.557 231.453 265.192 223.538 265.547 223.073C265.98 222.507 275.249 223.617 286.313 225.563C317.177 230.986 323.985 232.077 326.663 232.013L329.599 231.944L331.673 225.591C335.87 212.713 337.674 188.072 334.747 183.632C334.002 182.506 330.397 181.743 323.956 181.346C318.639 181.02 314.008 180.543 313.673 180.288C313.338 180.032 310.122 179.601 306.534 179.332C290.238 178.124 274.806 176.425 272.948 175.635C270.988 174.807 297.694 139.49 307.16 130.396C311.281 126.436 310.464 124.313 301.594 115.963C285.593 100.896 270.22 93.286 267.17 98.9241C266.398 100.356 258.283 111.776 249.141 124.303Z" fill="#FDBC28"/>
<path d="M1322.79 -46.0579C1332.47 -71.9276 1365.22 -79.8291 1385.63 -61.2183L1401.13 -47.087C1409.98 -39.018 1422.04 -35.4588 1433.85 -37.4323L1454.54 -40.8883C1481.78 -45.4399 1505 -21.0247 1499.09 5.95665L1494.6 26.4437C1492.04 38.1419 1494.99 50.3693 1502.6 59.6121L1515.94 75.7991C1533.5 97.1172 1523.97 129.434 1497.65 137.804L1477.66 144.16C1466.25 147.789 1457.13 156.458 1452.94 167.674L1445.59 187.317C1435.91 213.187 1403.15 221.088 1382.74 202.477L1367.24 188.346C1358.4 180.277 1346.33 176.718 1334.52 178.691L1313.83 182.147C1286.59 186.699 1263.37 162.284 1269.28 135.302L1273.77 114.815C1276.33 103.117 1273.38 90.8897 1265.77 81.6469L1252.43 65.46C1234.87 44.1419 1244.4 11.8251 1270.73 3.45455L1290.71 -2.90125C1302.12 -6.53043 1311.24 -15.1986 1315.44 -26.4148L1322.79 -46.0579Z" fill="#ED80B8"/>
<path d="M1634.31 5.52484C1626.06 -1.58618 1613.5 -0.721508 1607.42 8.31181C1599 20.8231 1592.31 34.4529 1587.56 48.8326C1580.75 69.4676 1578.07 91.2426 1579.67 112.914C1581.27 134.586 1587.13 155.729 1596.9 175.138C1606.67 194.547 1620.17 211.841 1636.63 226.032C1653.09 240.223 1672.18 251.033 1692.82 257.846C1713.45 264.659 1735.23 267.341 1756.9 265.739C1778.57 264.137 1799.71 258.281 1819.12 248.508C1832.65 241.697 1845.14 233.076 1856.28 222.906C1864.32 215.564 1863.33 203.011 1855.08 195.9L1821.29 166.765C1813.05 159.654 1800.69 160.823 1791.81 167.124C1788.49 169.485 1784.98 171.597 1781.32 173.441C1771.77 178.25 1761.36 181.131 1750.7 181.92C1740.04 182.708 1729.32 181.389 1719.17 178.036C1709.01 174.683 1699.62 169.364 1691.52 162.38C1683.42 155.397 1676.78 146.887 1671.97 137.336C1667.16 127.786 1664.28 117.381 1663.49 106.717C1662.7 96.0526 1664.02 85.3374 1667.37 75.1832C1668.66 71.2917 1670.23 67.5117 1672.08 63.8736C1677 54.1626 1676.34 41.7715 1668.1 34.6605L1634.31 5.52484Z" fill="#3BC89C"/>
<path fill-rule="evenodd" clip-rule="evenodd" d="M1501.32 83.9919C1502.22 86.2888 1504.85 94.6435 1507.15 102.559C1519.89 146.513 1520.53 148.295 1522.74 146.774C1523.77 146.068 1532.73 135.441 1542.65 123.157C1552.56 110.874 1561.89 99.4032 1563.37 97.6572C1569.87 90.0079 1599.33 110.213 1616.07 133.797L1621.61 141.602L1619.02 144.892C1617.6 146.702 1611.84 152.977 1606.22 158.84C1593.73 171.868 1580.93 186.589 1580.59 188.317C1580.41 189.215 1589.6 191.216 1611.44 195.039C1647.3 201.323 1643.56 198.946 1644.24 215.848C1644.86 231.056 1640.02 256.072 1633.58 270.951C1626.29 287.804 1629.77 286.889 1599.52 279.875C1564.67 271.795 1567.19 268.833 1580.3 302.401C1583.25 309.952 1586.58 319.047 1587.7 322.612L1589.74 329.091L1583.4 333.552C1564.33 346.95 1541.14 355.175 1517.76 356.829L1509.42 357.418L1507.9 353.878C1506.4 350.389 1501.44 334.167 1495.59 313.66C1491.52 299.397 1491.45 299.415 1477.49 317.139C1470.89 325.517 1464.33 333.528 1462.9 334.942C1461.47 336.357 1459.75 338.512 1459.08 339.735C1458.4 340.961 1456.71 342.96 1455.31 344.183L1452.76 346.405L1443.4 341.583C1424.35 331.764 1405.36 314.916 1394.53 298.208L1389.11 289.851L1404.11 273.218C1412.37 264.066 1422.29 253.14 1426.16 248.937C1435.63 238.657 1436.47 239.218 1403.95 234.144C1372.59 229.253 1371.52 228.935 1370.14 224.028C1367.75 215.572 1376.86 169.533 1382.65 160.807C1386.09 155.611 1386.59 155.623 1409.84 161.604C1432.47 167.43 1453.2 171.789 1454.39 170.98C1455.26 170.389 1454.2 166.413 1450.75 157.381C1449.48 154.08 1447.36 148.168 1446.03 144.246C1444.7 140.324 1440.91 130.297 1437.61 121.965C1434.31 113.633 1431.82 105.777 1432.07 104.508C1433.51 97.202 1467.29 83.6132 1490.87 80.8501L1499.66 79.8202L1501.32 83.9919ZM1587.99 206.115C1501.83 190.996 1499.77 191.32 1468.28 224.994C1459.98 233.865 1450.99 243.466 1448.29 246.323C1445.59 249.18 1440.78 254.331 1437.59 257.773C1434.4 261.211 1427.01 269.149 1421.17 275.411C1409.76 287.634 1409.04 288.959 1411.38 293.429C1415.11 300.568 1439.08 321.704 1447.39 325.174C1451.78 327.015 1449.05 329.89 1480.96 289.796C1489.93 278.521 1496.22 271.234 1496.86 271.361C1497.65 271.516 1501.11 281.376 1504.61 293.453C1514.4 327.137 1516.67 334.516 1518.06 337.174L1519.57 340.089L1526.98 339.036C1541.99 336.895 1567.64 326.543 1570.65 321.41C1571.42 320.106 1570.4 316.107 1567.62 309.44C1565.32 303.937 1563.52 299.049 1563.61 298.587C1563.7 298.124 1562.54 294.681 1561.04 290.943C1554.21 273.974 1548.3 257.631 1548.18 255.375C1548.04 252.997 1596.71 262.391 1610.52 267.411C1616.53 269.597 1618.26 267.728 1622.27 254.694C1629.51 231.18 1629.56 211.979 1622.39 211.697C1620.57 211.629 1605.09 209.114 1587.99 206.115Z" fill="#FFFF00"/>
<path d="M1587.99 206.115C1501.83 190.996 1499.77 191.32 1468.28 224.994C1459.98 233.865 1450.99 243.466 1448.29 246.323C1445.59 249.18 1440.78 254.331 1437.59 257.773C1434.4 261.211 1427.01 269.149 1421.17 275.411C1409.76 287.634 1409.04 288.959 1411.38 293.429C1415.11 300.568 1439.08 321.704 1447.39 325.174C1451.78 327.015 1449.05 329.89 1480.96 289.796C1489.93 278.521 1496.22 271.234 1496.86 271.361C1497.65 271.516 1501.11 281.376 1504.61 293.453C1514.4 327.137 1516.67 334.516 1518.06 337.174L1519.57 340.089L1526.98 339.036C1541.99 336.895 1567.64 326.543 1570.65 321.41C1571.42 320.106 1570.4 316.107 1567.62 309.44C1565.32 303.937 1563.52 299.049 1563.61 298.587C1563.7 298.124 1562.54 294.681 1561.04 290.943C1554.21 273.974 1548.3 257.631 1548.18 255.375C1548.04 252.997 1596.71 262.391 1610.52 267.411C1616.53 269.597 1618.26 267.728 1622.27 254.694C1629.51 231.18 1629.56 211.979 1622.39 211.697C1620.57 211.629 1605.09 209.114 1587.99 206.115Z" fill="#FFFF00"/>
<path d="M1224.33 58.1546C1258.48 47.1396 1295.09 65.8929 1306.11 100.042C1309.91 111.815 1310.16 123.881 1307.47 135.09C1316.21 142.615 1323.05 152.558 1326.85 164.331C1337.86 198.48 1319.11 235.093 1284.96 246.108C1273.18 249.906 1261.12 250.164 1249.91 247.474C1242.38 256.207 1232.44 263.048 1220.67 266.846C1186.52 277.86 1149.91 259.106 1138.89 224.957C1135.09 213.184 1134.84 201.118 1137.53 189.909C1128.79 182.384 1121.95 172.441 1118.15 160.668C1107.14 126.519 1125.89 89.907 1160.04 78.8918C1171.81 75.0942 1183.88 74.8356 1195.09 77.5257C1202.61 68.7928 1212.56 61.9523 1224.33 58.1546Z" fill="#E67107"/>
</g>
<defs>
<clipPath id="clip0_2140_270">
<rect width="1756" height="196" fill="white" transform="translate(-14)"/>
</clipPath>
</defs>
</svg>
