<svg width="36" height="36" viewBox="0 0 36 36" fill="none" xmlns="http://www.w3.org/2000/svg">
<path fill-rule="evenodd" clip-rule="evenodd" d="M16.8722 0.535661C16.9887 0.830208 17.3255 1.90161 17.62 2.91666C19.2547 8.55331 19.3356 8.78175 19.6201 8.58666C19.7517 8.49622 20.9005 7.13337 22.1723 5.55819C23.4441 3.983 24.6403 2.51198 24.8299 2.28807C25.6634 1.30714 29.4417 3.89819 31.5886 6.92259L32.2988 7.92352L31.9668 8.34535C31.7843 8.57754 31.0455 9.38216 30.3253 10.1341C28.7238 11.8048 27.0819 13.6925 27.038 13.9142C27.0152 14.0293 28.1941 14.2859 30.9943 14.7761C35.5931 15.5819 35.1133 15.2771 35.2009 17.4446C35.2801 19.3949 34.6594 22.6029 33.8337 24.511C32.8989 26.6721 33.3449 26.5549 29.4656 25.6554C24.9965 24.6191 25.3202 24.2394 27.0008 28.5441C27.3788 29.5124 27.8062 30.6787 27.9503 31.1358L28.2117 31.9667L27.398 32.5388C24.9527 34.2569 21.9794 35.3117 18.9805 35.5238L17.9112 35.5994L17.7163 35.1454C17.5247 34.6979 16.8875 32.6176 16.1376 29.9879C15.6162 28.1589 15.6064 28.1612 13.8172 30.4341C12.9709 31.5084 12.1293 32.5357 11.946 32.7171C11.7628 32.8985 11.5425 33.1748 11.4559 33.3317C11.3693 33.489 11.1515 33.7452 10.972 33.9021L10.6458 34.187L9.44515 33.5687C7.00218 32.3095 4.56752 30.149 3.17844 28.0063L2.4837 26.9346L4.40711 24.8017C5.46552 23.6281 6.73763 22.2269 7.23402 21.6879C8.44821 20.3696 8.55639 20.4416 4.38656 19.7909C0.364632 19.1637 0.227949 19.1229 0.050075 18.4936C-0.25613 17.4093 0.911957 11.5054 1.6545 10.3862C2.0962 9.71991 2.16022 9.72151 5.14168 10.4885C8.04406 11.2356 10.7019 11.7946 10.8543 11.6909C10.9663 11.615 10.8297 11.1051 10.3871 9.9469C10.225 9.52366 9.95277 8.76552 9.78205 8.26257C9.61132 7.75961 9.12557 6.47369 8.70259 5.40526C8.27961 4.33682 7.95974 3.32939 7.99198 3.16657C8.17751 2.2297 12.5089 0.487096 15.5324 0.132769L16.6595 0.000691538L16.8722 0.535661ZM27.9875 16.1965C16.938 14.2577 16.6735 14.2992 12.6357 18.6175C11.5714 19.7551 10.4181 20.9864 10.0721 21.3527C9.72611 21.7191 9.10863 22.3796 8.69954 22.821C8.29105 23.2619 7.34338 24.2798 6.5939 25.0829C5.13165 26.6504 5.03937 26.8203 5.33885 27.3936C5.81704 28.309 8.8915 31.0195 9.95679 31.4645C10.5202 31.7004 10.1701 32.0692 14.262 26.9276C15.4122 25.4818 16.2188 24.5472 16.3012 24.5635C16.4016 24.5834 16.8454 25.8478 17.2952 27.3965C18.5505 31.7161 18.841 32.6624 19.0189 33.0033L19.2136 33.3771L20.1634 33.2421C22.0882 32.9675 25.3771 31.6399 25.7637 30.9817C25.8617 30.8145 25.7318 30.3017 25.375 29.4467C25.0805 28.741 24.8487 28.1142 24.8604 28.0549C24.8722 27.9955 24.7241 27.554 24.5315 27.0747C23.6555 24.8986 22.8973 22.8029 22.8815 22.5135C22.8641 22.2085 29.1049 23.4133 30.8759 24.057C31.6469 24.3373 31.8687 24.0976 32.3829 22.4262C33.311 19.4108 33.3182 16.9484 32.3986 16.9124C32.1653 16.9036 30.1802 16.5811 27.9875 16.1965Z" fill="#3BC89C"/>
<path d="M27.9875 16.1965C16.938 14.2577 16.6735 14.2992 12.6357 18.6175C11.5714 19.7551 10.4181 20.9864 10.0721 21.3527C9.72611 21.7191 9.10863 22.3796 8.69954 22.821C8.29105 23.2619 7.34338 24.2798 6.5939 25.0829C5.13165 26.6504 5.03937 26.8203 5.33885 27.3936C5.81704 28.309 8.8915 31.0195 9.95679 31.4645C10.5202 31.7004 10.1701 32.0692 14.262 26.9276C15.4122 25.4818 16.2188 24.5472 16.3012 24.5635C16.4016 24.5834 16.8454 25.8478 17.2952 27.3965C18.5505 31.7161 18.841 32.6624 19.0189 33.0033L19.2136 33.3771L20.1634 33.2421C22.0882 32.9675 25.3771 31.6399 25.7637 30.9817C25.8617 30.8145 25.7318 30.3017 25.375 29.4467C25.0805 28.741 24.8487 28.1142 24.8604 28.0549C24.8722 27.9955 24.7241 27.554 24.5315 27.0747C23.6555 24.8986 22.8973 22.8029 22.8815 22.5135C22.8641 22.2085 29.1049 23.4133 30.8759 24.057C31.6469 24.3373 31.8687 24.0976 32.3829 22.4262C33.311 19.4108 33.3182 16.9484 32.3986 16.9124C32.1653 16.9036 30.1802 16.5811 27.9875 16.1965Z" fill="#3BC89C"/>
</svg>
