<svg width="90" height="107" viewBox="0 0 90 107" fill="none" xmlns="http://www.w3.org/2000/svg">
<path d="M40.4871 52.2187C42.2084 52.2189 43.6041 53.6162 43.6041 55.3399V70.9287C43.6041 72.6524 42.2084 74.0498 40.4871 74.05H32.703C38.7233 74.0501 43.604 78.9375 43.6041 84.966C43.6041 90.9946 38.7233 95.8819 32.703 95.882H3.11697C1.39553 95.882 0 94.4846 0 92.7608V77.1712C0.000107962 75.4475 1.39559 74.05 3.11697 74.05H10.901C4.88061 74.05 0 69.1626 0 63.1339C0.000160656 57.1054 4.8807 52.2187 10.901 52.2187H40.4871Z" fill="#ED80B8"/>
<path d="M84.1879 53.2207C86.1515 51.2545 89.5094 52.6476 89.5094 55.4283V92.7608C89.5094 94.4845 88.1138 95.8819 86.3924 95.882H49.0223C47.3009 95.882 45.9053 94.4846 45.9053 92.7608V55.4283C45.9053 52.6477 49.2625 51.2548 51.2261 53.2207L65.5036 67.5171C66.7208 68.736 68.6939 68.7361 69.9112 67.5171L84.1879 53.2207Z" fill="#49A7FF"/>
<path d="M40.4863 6.99763C42.2078 6.99763 43.6033 8.39506 43.6033 10.1189V28.8297C43.6032 40.8869 33.8427 50.6609 21.802 50.661C9.76128 50.661 0.000106838 40.887 0 28.8297V10.1189C0 8.39506 1.39551 6.99763 3.11697 6.99763H40.4863Z" fill="#3BC89C"/>
<path d="M66.9616 6.99763C79.0024 6.99763 88.7636 16.7723 88.7636 28.8297C88.7635 40.887 79.0024 50.661 66.9616 50.661H48.2766C46.5553 50.6608 45.1596 49.2634 45.1596 47.5397V28.8297C45.1596 16.7723 54.9209 6.99772 66.9616 6.99763Z" fill="#FDBC28"/>
</svg>
