<svg width="361" height="107" viewBox="0 0 361 107" fill="none" xmlns="http://www.w3.org/2000/svg">
<path d="M112.152 47.3339C109.418 47.3339 106.982 46.7527 104.846 45.5904C102.752 44.428 101.107 42.8136 99.9104 40.7472C98.714 38.6808 98.1157 36.2915 98.1157 33.5793V15.4981H106.576V33.3856C106.576 34.6771 106.79 35.7964 107.217 36.7435C107.644 37.6476 108.285 38.3364 109.14 38.8099C109.995 39.2835 110.999 39.5203 112.152 39.5203C113.904 39.5203 115.272 38.9821 116.255 37.9059C117.237 36.8296 117.729 35.3229 117.729 33.3856V15.4981H126.125V33.5793C126.125 36.3345 125.527 38.7454 124.331 40.8118C123.177 42.8782 121.532 44.4926 119.395 45.655C117.301 46.7743 114.887 47.3339 112.152 47.3339Z" fill="white"/>
<path d="M146.143 47.3339C143.921 47.3339 141.913 46.8819 140.118 45.9778C138.324 45.0307 136.892 43.7607 135.824 42.1679C134.756 40.575 134.179 38.7454 134.093 36.6789V25.6365C134.179 23.5701 134.756 21.7405 135.824 20.1476C136.935 18.5117 138.366 17.2202 140.118 16.2731C141.913 15.3259 143.921 14.8524 146.143 14.8524C149.006 14.8524 151.57 15.5627 153.835 16.9834C156.099 18.404 157.873 20.3413 159.154 22.7952C160.479 25.2491 161.141 28.0258 161.141 31.1254C161.141 34.182 160.479 36.9372 159.154 39.3911C157.873 41.845 156.099 43.7823 153.835 45.2029C151.57 46.6236 149.006 47.3339 146.143 47.3339ZM128.966 54.648V15.4981H137.362V23.6992L135.952 31.2546L137.298 38.8099V54.648H128.966ZM144.669 39.5203C146.207 39.5203 147.575 39.1759 148.771 38.4871C149.968 37.7552 150.886 36.765 151.527 35.5166C152.211 34.2251 152.553 32.7398 152.553 31.0609C152.553 29.425 152.211 27.9828 151.527 26.7343C150.886 25.4428 149.968 24.4526 148.771 23.7638C147.575 23.032 146.207 22.666 144.669 22.666C143.174 22.666 141.828 23.032 140.631 23.7638C139.435 24.4526 138.495 25.4428 137.811 26.7343C137.17 27.9828 136.85 29.425 136.85 31.0609C136.85 32.7398 137.17 34.2251 137.811 35.5166C138.495 36.765 139.413 37.7552 140.567 38.4871C141.763 39.1759 143.131 39.5203 144.669 39.5203Z" fill="white"/>
<path d="M173.441 47.3985C171.689 47.3985 169.958 47.1617 168.249 46.6882C166.582 46.2146 165.044 45.5689 163.634 44.7509C162.224 43.8899 161.006 42.8567 159.981 41.6513L164.98 36.5498C166.048 37.7552 167.288 38.6593 168.698 39.262C170.108 39.8647 171.667 40.166 173.377 40.166C174.744 40.166 175.769 39.9723 176.453 39.5848C177.179 39.1974 177.543 38.6162 177.543 37.8413C177.543 36.9803 177.158 36.313 176.389 35.8395C175.663 35.3659 174.701 34.9785 173.505 34.6771C172.308 34.3327 171.048 33.9668 169.723 33.5793C168.441 33.1488 167.202 32.6107 166.006 31.9649C164.809 31.2761 163.826 30.3505 163.057 29.1882C162.331 27.9828 161.968 26.433 161.968 24.5387C161.968 22.5584 162.438 20.8364 163.378 19.3727C164.361 17.909 165.749 16.7681 167.544 15.9502C169.339 15.1322 171.454 14.7232 173.889 14.7232C176.453 14.7232 178.76 15.1753 180.812 16.0793C182.905 16.9834 184.636 18.3395 186.003 20.1476L180.94 25.2491C180 24.0867 178.931 23.2472 177.735 22.7306C176.581 22.214 175.321 21.9557 173.953 21.9557C172.714 21.9557 171.753 22.1494 171.069 22.5369C170.428 22.9243 170.108 23.4625 170.108 24.1513C170.108 24.9262 170.471 25.5289 171.197 25.9594C171.966 26.3899 172.949 26.7774 174.146 27.1218C175.342 27.4231 176.581 27.789 177.863 28.2195C179.188 28.607 180.427 29.1666 181.581 29.8985C182.777 30.6304 183.739 31.599 184.465 32.8044C185.234 34.0098 185.619 35.5596 185.619 37.4539C185.619 40.5104 184.529 42.9428 182.35 44.7509C180.171 46.516 177.201 47.3985 173.441 47.3985Z" fill="white"/>
<path d="M208.266 46.6882V28.8007C208.266 26.9496 207.689 25.4428 206.535 24.2804C205.381 23.1181 203.886 22.5369 202.048 22.5369C200.852 22.5369 199.784 22.7952 198.844 23.3118C197.904 23.8284 197.156 24.5603 196.6 25.5074C196.088 26.4545 195.831 27.5523 195.831 28.8007L192.562 27.1218C192.562 24.6679 193.075 22.5369 194.101 20.7288C195.126 18.8776 196.536 17.4354 198.331 16.4022C200.168 15.369 202.262 14.8524 204.612 14.8524C206.962 14.8524 209.035 15.369 210.829 16.4022C212.667 17.4354 214.098 18.8561 215.124 20.6642C216.149 22.4723 216.662 24.5603 216.662 26.928V46.6882H208.266ZM187.435 46.6882V0H195.831V46.6882H187.435Z" fill="white"/>
<path d="M234.129 47.3339C231.01 47.3339 228.19 46.6236 225.669 45.2029C223.191 43.7392 221.204 41.7804 219.708 39.3265C218.255 36.8296 217.529 34.0529 217.529 30.9963C217.529 27.9397 218.255 25.206 219.708 22.7952C221.161 20.3413 223.148 18.404 225.669 16.9834C228.19 15.5197 230.989 14.7878 234.065 14.7878C237.227 14.7878 240.047 15.5197 242.526 16.9834C245.047 18.404 247.034 20.3413 248.487 22.7952C249.939 25.206 250.666 27.9397 250.666 30.9963C250.666 34.0529 249.939 36.8296 248.487 39.3265C247.034 41.7804 245.047 43.7392 242.526 45.2029C240.047 46.6236 237.249 47.3339 234.129 47.3339ZM234.065 39.4557C235.646 39.4557 237.035 39.1113 238.231 38.4225C239.471 37.6906 240.411 36.7005 241.052 35.452C241.735 34.1605 242.077 32.6968 242.077 31.0609C242.077 29.425 241.735 27.9828 241.052 26.7343C240.368 25.4858 239.428 24.5172 238.231 23.8284C237.035 23.0965 235.646 22.7306 234.065 22.7306C232.527 22.7306 231.16 23.0965 229.963 23.8284C228.767 24.5172 227.827 25.4858 227.143 26.7343C226.459 27.9828 226.118 29.425 226.118 31.0609C226.118 32.6968 226.459 34.1605 227.143 35.452C227.827 36.7005 228.767 37.6906 229.963 38.4225C231.16 39.1113 232.527 39.4557 234.065 39.4557Z" fill="white"/>
<path d="M266.775 47.3339C263.656 47.3339 260.836 46.6236 258.315 45.2029C255.836 43.7392 253.849 41.7804 252.354 39.3265C250.901 36.8296 250.175 34.0529 250.175 30.9963C250.175 27.9397 250.901 25.206 252.354 22.7952C253.807 20.3413 255.794 18.404 258.315 16.9834C260.836 15.5197 263.634 14.7878 266.711 14.7878C269.873 14.7878 272.693 15.5197 275.172 16.9834C277.693 18.404 279.68 20.3413 281.132 22.7952C282.585 25.206 283.312 27.9397 283.312 30.9963C283.312 34.0529 282.585 36.8296 281.132 39.3265C279.68 41.7804 277.693 43.7392 275.172 45.2029C272.693 46.6236 269.894 47.3339 266.775 47.3339ZM266.711 39.4557C268.292 39.4557 269.681 39.1113 270.877 38.4225C272.116 37.6906 273.056 36.7005 273.697 35.452C274.381 34.1605 274.723 32.6968 274.723 31.0609C274.723 29.425 274.381 27.9828 273.697 26.7343C273.014 25.4858 272.074 24.5172 270.877 23.8284C269.681 23.0965 268.292 22.7306 266.711 22.7306C265.173 22.7306 263.805 23.0965 262.609 23.8284C261.413 24.5172 260.473 25.4858 259.789 26.7343C259.105 27.9828 258.763 29.425 258.763 31.0609C258.763 32.6968 259.105 34.1605 259.789 35.452C260.473 36.7005 261.413 37.6906 262.609 38.4225C263.805 39.1113 265.173 39.4557 266.711 39.4557Z" fill="white"/>
<path d="M288.671 46.6882V2.51845H297.067V46.6882H288.671ZM281.428 22.9243V15.4981H304.31V22.9243H281.428Z" fill="white"/>
<path d="M98.949 92.7775V61.5875H107.345V92.7775H98.949ZM119.139 92.7775V74.3734C119.139 72.5653 118.562 71.1662 117.408 70.176C116.297 69.1428 114.909 68.6262 113.242 68.6262C112.131 68.6262 111.127 68.863 110.23 69.3365C109.332 69.767 108.627 70.4128 108.115 71.2738C107.602 72.1348 107.345 73.168 107.345 74.3734L104.077 72.759C104.077 70.3482 104.589 68.2603 105.615 66.4952C106.683 64.7301 108.115 63.3741 109.909 62.4269C111.704 61.4368 113.733 60.9417 115.998 60.9417C118.135 60.9417 120.079 61.4368 121.831 62.4269C123.583 63.3741 124.971 64.7301 125.997 66.4952C127.022 68.2172 127.535 70.3052 127.535 72.759V92.7775H119.139ZM139.329 92.7775V74.3734C139.329 72.5653 138.752 71.1662 137.598 70.176C136.487 69.1428 135.098 68.6262 133.432 68.6262C132.364 68.6262 131.36 68.863 130.42 69.3365C129.522 69.767 128.817 70.4128 128.304 71.2738C127.792 72.1348 127.535 73.168 127.535 74.3734L122.728 73.2111C122.899 70.7141 123.561 68.5616 124.715 66.7535C125.869 64.9023 127.386 63.4817 129.266 62.4915C131.146 61.4583 133.24 60.9417 135.547 60.9417C137.855 60.9417 139.927 61.4368 141.764 62.4269C143.602 63.3741 145.054 64.7517 146.123 66.5598C147.191 68.3679 147.725 70.5204 147.725 73.0173V92.7775H139.329Z" fill="white"/>
<path d="M163.633 93.4232C160.812 93.4232 158.27 92.7129 156.005 91.2922C153.741 89.8716 151.967 87.9343 150.685 85.4804C149.404 83.0266 148.763 80.2713 148.763 77.2148C148.763 74.1151 149.404 71.3384 150.685 68.8845C151.967 66.4306 153.741 64.4934 156.005 63.0727C158.27 61.652 160.812 60.9417 163.633 60.9417C165.855 60.9417 167.842 61.3937 169.593 62.2978C171.345 63.2019 172.734 64.4718 173.76 66.1078C174.828 67.7006 175.405 69.5087 175.49 71.5321V82.7683C175.405 84.8347 174.828 86.6643 173.76 88.2572C172.734 89.8501 171.345 91.12 169.593 92.0671C167.842 92.9712 165.855 93.4232 163.633 93.4232ZM165.171 85.6096C167.521 85.6096 169.423 84.8347 170.875 83.2849C172.328 81.692 173.055 79.6471 173.055 77.1502C173.055 75.5143 172.713 74.0721 172.029 72.8236C171.388 71.5321 170.469 70.5419 169.273 69.8531C168.119 69.1213 166.752 68.7554 165.171 68.7554C163.633 68.7554 162.265 69.1213 161.069 69.8531C159.915 70.5419 158.996 71.5321 158.313 72.8236C157.672 74.0721 157.351 75.5143 157.351 77.1502C157.351 78.8291 157.672 80.3144 158.313 81.6059C158.996 82.8544 159.915 83.8445 161.069 84.5764C162.265 85.2652 163.633 85.6096 165.171 85.6096ZM172.606 92.7775V84.3827L173.952 76.7627L172.606 69.272V61.5875H180.938V92.7775H172.606Z" fill="white"/>
<path d="M184.521 92.7775V61.5875H192.917V92.7775H184.521ZM192.917 75.5358L189.648 73.3402C190.033 69.5087 191.144 66.4952 192.981 64.2996C194.818 62.061 197.468 60.9417 200.929 60.9417C202.424 60.9417 203.77 61.2 204.967 61.7166C206.163 62.1902 207.253 62.9866 208.236 64.1059L202.98 70.176C202.51 69.6594 201.933 69.272 201.249 69.0137C200.608 68.7554 199.861 68.6262 199.006 68.6262C197.211 68.6262 195.737 69.2074 194.583 70.3697C193.472 71.489 192.917 73.2111 192.917 75.5358Z" fill="white"/>
<path d="M227.08 92.7775L215.095 76.6982L227.016 61.5875H236.695L222.722 78.6354L223.042 74.5026L237.336 92.7775H227.08ZM207.339 92.7775V52.9781H215.736V92.7775H207.339Z" fill="white"/>
<path d="M250.722 93.4232C247.475 93.4232 244.591 92.7344 242.07 91.3568C239.549 89.9362 237.54 87.9989 236.045 85.545C234.592 83.0911 233.865 80.2929 233.865 77.1502C233.865 74.0506 234.571 71.2953 235.981 68.8845C237.433 66.4306 239.399 64.4934 241.877 63.0727C244.356 61.609 247.112 60.8771 250.146 60.8771C253.137 60.8771 255.765 61.5659 258.029 62.9436C260.337 64.2781 262.131 66.1293 263.413 68.4971C264.738 70.8218 265.4 73.4694 265.4 76.4398C265.4 76.9995 265.357 77.5807 265.272 78.1834C265.229 78.743 265.122 79.3888 264.951 80.1207L238.929 80.1852V73.8568L261.042 73.7923L257.645 76.4398C257.559 74.5887 257.217 73.0389 256.619 71.7904C256.064 70.5419 255.23 69.5948 254.119 68.9491C253.051 68.2603 251.727 67.9159 250.146 67.9159C248.479 67.9159 247.026 68.3033 245.787 69.0782C244.548 69.8101 243.587 70.8648 242.903 72.2424C242.262 73.577 241.941 75.1699 241.941 77.021C241.941 78.9153 242.283 80.5727 242.967 81.9933C243.693 83.371 244.719 84.4472 246.043 85.2221C247.368 85.954 248.906 86.3199 250.658 86.3199C252.239 86.3199 253.671 86.0616 254.953 85.545C256.235 84.9854 257.346 84.1674 258.286 83.0911L263.221 88.0635C261.725 89.8285 259.888 91.1631 257.709 92.0671C255.572 92.9712 253.243 93.4232 250.722 93.4232Z" fill="white"/>
<path d="M270.547 92.7775V48.6078H278.943V92.7775H270.547ZM263.304 69.0137V61.5875H286.186V69.0137H263.304Z" fill="white"/>
<path d="M287.062 92.7775V61.5875H295.523V92.7775H287.062Z" fill="white"/>
<path d="M319.946 92.7775V74.89C319.946 73.0389 319.369 71.5321 318.215 70.3697C317.061 69.2074 315.566 68.6262 313.729 68.6262C312.532 68.6262 311.464 68.8845 310.524 69.4011C309.584 69.9177 308.836 70.6496 308.281 71.5967C307.768 72.5438 307.511 73.6416 307.511 74.89L304.243 73.2111C304.243 70.7572 304.755 68.6262 305.781 66.8181C306.849 64.9669 308.302 63.5247 310.139 62.4915C312.019 61.4583 314.134 60.9417 316.485 60.9417C318.749 60.9417 320.779 61.5229 322.574 62.6852C324.368 63.8046 325.778 65.2898 326.804 67.141C327.829 68.9491 328.342 70.9079 328.342 73.0173V92.7775H319.946ZM299.115 92.7775V61.5875H307.511V92.7775H299.115Z" fill="white"/>
<path d="M344.207 106.597C340.917 106.597 338.011 105.994 335.49 104.789C332.969 103.626 330.961 101.969 329.465 99.8162L334.785 94.4564C335.982 95.8771 337.306 96.9534 338.759 97.6852C340.255 98.4601 342.049 98.8476 344.143 98.8476C346.75 98.8476 348.801 98.1803 350.296 96.8457C351.834 95.5112 352.604 93.66 352.604 91.2922V83.4786L354.014 76.6336L352.668 69.7886V61.5875H361V91.1631C361 94.2627 360.274 96.9534 358.821 99.235C357.411 101.56 355.445 103.368 352.924 104.659C350.403 105.951 347.497 106.597 344.207 106.597ZM343.823 91.938C341.045 91.938 338.545 91.2707 336.323 89.9361C334.102 88.5585 332.35 86.6859 331.068 84.3181C329.829 81.9503 329.209 79.3027 329.209 76.3753C329.209 73.4478 329.829 70.8218 331.068 68.4971C332.35 66.1723 334.102 64.3427 336.323 63.0081C338.545 61.6305 341.045 60.9417 343.823 60.9417C346.13 60.9417 348.16 61.3937 349.912 62.2978C351.706 63.2019 353.116 64.4503 354.142 66.0432C355.167 67.593 355.723 69.4226 355.808 71.5321V81.3476C355.723 83.414 355.146 85.2652 354.078 86.9011C353.052 88.494 351.642 89.7424 349.847 90.6465C348.096 91.5075 346.087 91.938 343.823 91.938ZM345.489 84.2535C347.027 84.2535 348.352 83.9306 349.463 83.2849C350.617 82.5961 351.514 81.6705 352.155 80.5081C352.796 79.3027 353.116 77.9466 353.116 76.4398C353.116 74.89 352.796 73.5339 352.155 72.3716C351.514 71.2092 350.617 70.3052 349.463 69.6594C348.352 68.9706 347.027 68.6262 345.489 68.6262C343.951 68.6262 342.605 68.9706 341.451 69.6594C340.297 70.3052 339.4 71.2308 338.759 72.4362C338.118 73.5985 337.798 74.9331 337.798 76.4398C337.798 77.9036 338.118 79.2381 338.759 80.4435C339.4 81.6059 340.297 82.5315 341.451 83.2203C342.605 83.9091 343.951 84.2535 345.489 84.2535Z" fill="white"/>
<path d="M40.4871 52.2187C42.2084 52.2189 43.6041 53.6162 43.6041 55.3399V70.9287C43.6041 72.6524 42.2084 74.0498 40.4871 74.05H32.703C38.7233 74.0501 43.604 78.9375 43.6041 84.966C43.6041 90.9946 38.7233 95.8819 32.703 95.882H3.11697C1.39553 95.882 0 94.4846 0 92.7608V77.1712C0.000107962 75.4475 1.39559 74.05 3.11697 74.05H10.901C4.88061 74.05 0 69.1626 0 63.1339C0.000160656 57.1054 4.8807 52.2187 10.901 52.2187H40.4871Z" fill="#ED80B8"/>
<path d="M84.1879 53.2207C86.1515 51.2545 89.5094 52.6476 89.5094 55.4283V92.7608C89.5094 94.4845 88.1138 95.8819 86.3924 95.882H49.0223C47.3009 95.882 45.9053 94.4846 45.9053 92.7608V55.4283C45.9053 52.6477 49.2625 51.2548 51.2261 53.2207L65.5036 67.5171C66.7208 68.736 68.6939 68.7361 69.9112 67.5171L84.1879 53.2207Z" fill="#49A7FF"/>
<path d="M40.4863 6.99763C42.2078 6.99763 43.6033 8.39506 43.6033 10.1189V28.8297C43.6032 40.8869 33.8427 50.6609 21.802 50.661C9.76128 50.661 0.000106838 40.887 0 28.8297V10.1189C0 8.39506 1.39551 6.99763 3.11697 6.99763H40.4863Z" fill="#3BC89C"/>
<path d="M66.9616 6.99763C79.0024 6.99763 88.7636 16.7723 88.7636 28.8297C88.7635 40.887 79.0024 50.661 66.9616 50.661H48.2766C46.5553 50.6608 45.1596 49.2634 45.1596 47.5397V28.8297C45.1596 16.7723 54.9209 6.99772 66.9616 6.99763Z" fill="#FDBC28"/>
</svg>
