<svg width="132" height="39" viewBox="0 0 132 39" fill="none" xmlns="http://www.w3.org/2000/svg">
<path d="M41.0087 17.3077C40.0087 17.3077 39.1181 17.0952 38.3369 16.6702C37.5713 16.2451 36.9698 15.6548 36.5323 14.8993C36.0949 14.1437 35.8761 13.27 35.8761 12.2783V5.66691H38.9697V12.2075C38.9697 12.6797 39.0478 13.089 39.2041 13.4353C39.3603 13.7659 39.5947 14.0177 39.9072 14.1909C40.2196 14.364 40.5868 14.4506 41.0087 14.4506C41.6493 14.4506 42.1492 14.2539 42.5086 13.8603C42.868 13.4668 43.0476 12.9158 43.0476 12.2075V5.66691H46.1178V12.2783C46.1178 13.2858 45.899 14.1673 45.4616 14.9229C45.0397 15.6785 44.4382 16.2688 43.657 16.6938C42.8914 17.1031 42.0086 17.3077 41.0087 17.3077Z" fill="black"/>
<path d="M53.4374 17.3077C52.625 17.3077 51.8906 17.1424 51.2344 16.8118C50.5782 16.4655 50.0548 16.0012 49.6642 15.4187C49.2736 14.8363 49.0626 14.1673 49.0314 13.4117V9.37402C49.0626 8.61843 49.2736 7.94942 49.6642 7.36699C50.0704 6.76881 50.5938 6.29657 51.2344 5.95026C51.8906 5.60395 52.625 5.43079 53.4374 5.43079C54.4842 5.43079 55.4217 5.69052 56.2498 6.20999C57.0779 6.72946 57.7263 7.43782 58.195 8.33508C58.6793 9.23234 58.9215 10.2477 58.9215 11.381C58.9215 12.4987 58.6793 13.5061 58.195 14.4034C57.7263 15.3007 57.0779 16.009 56.2498 16.5285C55.4217 17.048 54.4842 17.3077 53.4374 17.3077ZM47.1565 19.9821V5.66691H50.2266V8.66565L49.711 11.4283L50.2032 14.1909V19.9821H47.1565ZM52.8984 14.4506C53.4609 14.4506 53.9608 14.3247 54.3983 14.0728C54.8358 13.8052 55.1717 13.4432 55.4061 12.9867C55.6561 12.5144 55.781 11.9714 55.781 11.3574C55.781 10.7593 55.6561 10.2319 55.4061 9.77542C55.1717 9.30318 54.8358 8.94113 54.3983 8.68927C53.9608 8.42166 53.4609 8.28786 52.8984 8.28786C52.3515 8.28786 51.8594 8.42166 51.4219 8.68927C50.9844 8.94113 50.6407 9.30318 50.3907 9.77542C50.1563 10.2319 50.0392 10.7593 50.0392 11.3574C50.0392 11.9714 50.1563 12.5144 50.3907 12.9867C50.6407 13.4432 50.9766 13.8052 51.3985 14.0728C51.8359 14.3247 52.3359 14.4506 52.8984 14.4506Z" fill="black"/>
<path d="M63.4187 17.3313C62.7781 17.3313 62.1454 17.2447 61.5204 17.0716C60.911 16.8984 60.3486 16.6623 59.833 16.3632C59.3174 16.0484 58.8721 15.6706 58.4971 15.2298L60.3251 13.3645C60.7157 13.8052 61.1688 14.1358 61.6844 14.3562C62.2 14.5766 62.7703 14.6867 63.3953 14.6867C63.8953 14.6867 64.2702 14.6159 64.5202 14.4742C64.7858 14.3326 64.9187 14.1201 64.9187 13.8367C64.9187 13.5219 64.778 13.2779 64.4968 13.1047C64.2312 12.9316 63.8796 12.7899 63.4422 12.6797C63.0047 12.5538 62.5438 12.42 62.0594 12.2783C61.5907 12.1209 61.1376 11.9241 60.7001 11.688C60.2626 11.4361 59.9033 11.0977 59.622 10.6727C59.3564 10.2319 59.2236 9.66523 59.2236 8.97261C59.2236 8.24851 59.3955 7.61885 59.7392 7.08364C60.0986 6.54843 60.6064 6.13128 61.2626 5.8322C61.9188 5.53311 62.6922 5.38357 63.5828 5.38357C64.5202 5.38357 65.3639 5.54885 66.1139 5.87942C66.8795 6.20999 67.5123 6.70585 68.0122 7.36699L66.1608 9.23234C65.817 8.80733 65.4264 8.50037 64.989 8.31147C64.5671 8.12257 64.1062 8.02813 63.6062 8.02813C63.1531 8.02813 62.8016 8.09896 62.5516 8.24063C62.3172 8.38231 62.2 8.57907 62.2 8.83094C62.2 9.11428 62.3328 9.33466 62.5985 9.49208C62.8797 9.64949 63.239 9.79116 63.6765 9.9171C64.114 10.0273 64.5671 10.1611 65.0358 10.3185C65.5202 10.4602 65.9733 10.6648 66.3951 10.9324C66.8326 11.2 67.1842 11.5542 67.4498 11.995C67.731 12.4357 67.8716 13.0024 67.8716 13.695C67.8716 14.8127 67.4732 15.7021 66.6764 16.3632C65.8795 17.0086 64.7937 17.3313 63.4187 17.3313Z" fill="black"/>
<path d="M76.1525 17.0716V10.531C76.1525 9.85413 75.9416 9.30318 75.5197 8.87816C75.0979 8.45314 74.551 8.24063 73.8792 8.24063C73.4417 8.24063 73.0511 8.33508 72.7074 8.52398C72.3637 8.71288 72.0902 8.98048 71.8871 9.32679C71.6996 9.6731 71.6059 10.0745 71.6059 10.531L70.4106 9.9171C70.4106 9.01983 70.5981 8.24063 70.9731 7.57949C71.3481 6.90261 71.8637 6.37528 72.5199 5.99748C73.1917 5.61969 73.9573 5.43079 74.8167 5.43079C75.676 5.43079 76.4338 5.61969 77.09 5.99748C77.7618 6.37528 78.2852 6.89474 78.6602 7.55588C79.0352 8.21702 79.2227 8.98048 79.2227 9.84626V17.0716H76.1525ZM68.5357 17.0716V0H71.6059V17.0716H68.5357Z" fill="black"/>
<path d="M85.6096 17.3077C84.4691 17.3077 83.4379 17.048 82.516 16.5285C81.6098 15.9933 80.8833 15.2771 80.3365 14.3798C79.8052 13.4668 79.5396 12.4515 79.5396 11.3338C79.5396 10.2162 79.8052 9.2166 80.3365 8.33508C80.8677 7.43782 81.5942 6.72946 82.516 6.20999C83.4379 5.67478 84.4613 5.40718 85.5862 5.40718C86.7424 5.40718 87.7736 5.67478 88.6798 6.20999C89.6016 6.72946 90.3281 7.43782 90.8594 8.33508C91.3906 9.2166 91.6562 10.2162 91.6562 11.3338C91.6562 12.4515 91.3906 13.4668 90.8594 14.3798C90.3281 15.2771 89.6016 15.9933 88.6798 16.5285C87.7736 17.048 86.7502 17.3077 85.6096 17.3077ZM85.5862 14.427C86.1643 14.427 86.6721 14.3011 87.1096 14.0492C87.5627 13.7816 87.9064 13.4196 88.1408 12.9631C88.3907 12.4908 88.5157 11.9556 88.5157 11.3574C88.5157 10.7593 88.3907 10.2319 88.1408 9.77542C87.8908 9.31892 87.547 8.96474 87.1096 8.71288C86.6721 8.44527 86.1643 8.31147 85.5862 8.31147C85.0237 8.31147 84.5238 8.44527 84.0863 8.71288C83.6488 8.96474 83.3051 9.31892 83.0551 9.77542C82.8051 10.2319 82.6801 10.7593 82.6801 11.3574C82.6801 11.9556 82.8051 12.4908 83.0551 12.9631C83.3051 13.4196 83.6488 13.7816 84.0863 14.0492C84.5238 14.3011 85.0237 14.427 85.5862 14.427Z" fill="black"/>
<path d="M97.5466 17.3077C96.406 17.3077 95.3748 17.048 94.453 16.5285C93.5468 15.9933 92.8203 15.2771 92.2734 14.3798C91.7422 13.4668 91.4766 12.4515 91.4766 11.3338C91.4766 10.2162 91.7422 9.2166 92.2734 8.33508C92.8046 7.43782 93.5312 6.72946 94.453 6.20999C95.3748 5.67478 96.3982 5.40718 97.5231 5.40718C98.6793 5.40718 99.7105 5.67478 100.617 6.20999C101.539 6.72946 102.265 7.43782 102.796 8.33508C103.328 9.2166 103.593 10.2162 103.593 11.3338C103.593 12.4515 103.328 13.4668 102.796 14.3798C102.265 15.2771 101.539 15.9933 100.617 16.5285C99.7105 17.048 98.6871 17.3077 97.5466 17.3077ZM97.5231 14.427C98.1012 14.427 98.609 14.3011 99.0465 14.0492C99.4996 13.7816 99.8434 13.4196 100.078 12.9631C100.328 12.4908 100.453 11.9556 100.453 11.3574C100.453 10.7593 100.328 10.2319 100.078 9.77542C99.8277 9.31892 99.484 8.96474 99.0465 8.71288C98.609 8.44527 98.1012 8.31147 97.5231 8.31147C96.9607 8.31147 96.4607 8.44527 96.0232 8.71288C95.5858 8.96474 95.242 9.31892 94.992 9.77542C94.742 10.2319 94.6171 10.7593 94.6171 11.3574C94.6171 11.9556 94.742 12.4908 94.992 12.9631C95.242 13.4196 95.5858 13.7816 96.0232 14.0492C96.4607 14.3011 96.9607 14.427 97.5231 14.427Z" fill="black"/>
<path d="M105.553 17.0716V0.920874H108.623V17.0716H105.553ZM102.905 8.38231V5.66691H111.271V8.38231H102.905Z" fill="black"/>
<path d="M36.1808 33.9242V22.5195H39.2509V33.9242H36.1808ZM43.5632 33.9242V27.1947C43.5632 26.5336 43.3523 26.022 42.9304 25.6599C42.5242 25.2821 42.0164 25.0932 41.4071 25.0932C41.0009 25.0932 40.6337 25.1798 40.3056 25.353C39.9775 25.5104 39.7197 25.7465 39.5322 26.0613C39.3447 26.3762 39.2509 26.754 39.2509 27.1947L38.0557 26.6044C38.0557 25.7229 38.2432 24.9594 38.6182 24.314C39.0088 23.6686 39.5322 23.1728 40.1884 22.8265C40.8446 22.4644 41.5868 22.2834 42.4148 22.2834C43.1961 22.2834 43.907 22.4644 44.5476 22.8265C45.1881 23.1728 45.6959 23.6686 46.0709 24.314C46.4459 24.9437 46.6334 25.7072 46.6334 26.6044V33.9242H43.5632ZM50.9457 33.9242V27.1947C50.9457 26.5336 50.7347 26.022 50.3129 25.6599C49.9067 25.2821 49.3989 25.0932 48.7895 25.0932C48.3989 25.0932 48.0318 25.1798 47.688 25.353C47.3599 25.5104 47.1021 25.7465 46.9146 26.0613C46.7271 26.3762 46.6334 26.754 46.6334 27.1947L44.8757 26.7697C44.9382 25.8567 45.1803 25.0696 45.6022 24.4085C46.024 23.7316 46.5787 23.2121 47.2662 22.8501C47.9536 22.4723 48.7192 22.2834 49.5629 22.2834C50.4066 22.2834 51.1644 22.4644 51.8362 22.8265C52.5081 23.1728 53.0393 23.6765 53.4299 24.3376C53.8205 24.9988 54.0158 25.7859 54.0158 26.6989V33.9242H50.9457Z" fill="black"/>
<path d="M59.8324 34.1603C58.8012 34.1603 57.8716 33.9006 57.0435 33.3811C56.2154 32.8616 55.567 32.1533 55.0983 31.256C54.6296 30.3587 54.3952 29.3513 54.3952 28.2336C54.3952 27.1003 54.6296 26.0849 55.0983 25.1877C55.567 24.2904 56.2154 23.5821 57.0435 23.0626C57.8716 22.5431 58.8012 22.2834 59.8324 22.2834C60.6449 22.2834 61.3714 22.4487 62.012 22.7792C62.6526 23.1098 63.1604 23.5742 63.5354 24.1724C63.926 24.7548 64.1369 25.4159 64.1682 26.1558V30.2643C64.1369 31.0199 63.926 31.6889 63.5354 32.2713C63.1604 32.8538 62.6526 33.3181 62.012 33.6644C61.3714 33.995 60.6449 34.1603 59.8324 34.1603ZM60.3949 31.3032C61.2542 31.3032 61.9495 31.0199 62.4807 30.4532C63.012 29.8708 63.2776 29.123 63.2776 28.21C63.2776 27.6119 63.1526 27.0845 62.9026 26.628C62.6682 26.1558 62.3323 25.7937 61.8948 25.5419C61.473 25.2743 60.973 25.1405 60.3949 25.1405C59.8324 25.1405 59.3325 25.2743 58.895 25.5419C58.4731 25.7937 58.1372 26.1558 57.8872 26.628C57.6528 27.0845 57.5357 27.6119 57.5357 28.21C57.5357 28.824 57.6528 29.367 57.8872 29.8393C58.1372 30.2958 58.4731 30.6578 58.895 30.9254C59.3325 31.1773 59.8324 31.3032 60.3949 31.3032ZM63.1135 33.9242V30.8546L63.6057 28.0684L63.1135 25.3294V22.5195H66.1602V33.9242H63.1135Z" fill="black"/>
<path d="M67.4701 33.9242V22.5195H70.5403V33.9242H67.4701ZM70.5403 27.6197L69.345 26.8169C69.4856 25.4159 69.8919 24.314 70.5637 23.5112C71.2355 22.6927 72.2042 22.2834 73.4698 22.2834C74.0166 22.2834 74.5088 22.3778 74.9463 22.5667C75.3838 22.7399 75.7822 23.0311 76.1415 23.4404L74.2198 25.6599C74.0479 25.471 73.837 25.3294 73.587 25.2349C73.3526 25.1405 73.0792 25.0932 72.7667 25.0932C72.1105 25.0932 71.5714 25.3057 71.1496 25.7308C70.7434 26.14 70.5403 26.7697 70.5403 27.6197Z" fill="black"/>
<path d="M83.0322 33.9242L78.6496 28.0448L83.0087 22.5195H86.5476L81.4385 28.7531L81.5557 27.2419L86.782 33.9242H83.0322ZM75.8138 33.9242V19.3715H78.8839V33.9242H75.8138Z" fill="black"/>
<path d="M91.6769 34.1603C90.4894 34.1603 89.4348 33.9084 88.513 33.4047C87.5912 32.8852 86.8568 32.1769 86.31 31.2796C85.7787 30.3824 85.5131 29.3592 85.5131 28.21C85.5131 27.0767 85.7709 26.0692 86.2865 25.1877C86.8178 24.2904 87.5365 23.5821 88.4427 23.0626C89.3489 22.5274 90.3566 22.2598 91.466 22.2598C92.5597 22.2598 93.5206 22.5116 94.3486 23.0154C95.1923 23.5034 95.8485 24.1802 96.3173 25.046C96.8016 25.896 97.0438 26.8641 97.0438 27.9503C97.0438 28.1549 97.0282 28.3674 96.9969 28.5878C96.9813 28.7925 96.9423 29.0286 96.8798 29.2962L87.3646 29.3198V27.0058L95.4501 26.9822L94.208 27.9503C94.1768 27.2734 94.0518 26.7067 93.833 26.2502C93.6299 25.7937 93.3252 25.4474 92.919 25.2113C92.5284 24.9594 92.0441 24.8335 91.466 24.8335C90.8566 24.8335 90.3254 24.9752 89.8723 25.2585C89.4192 25.5261 89.0676 25.9118 88.8177 26.4155C88.5833 26.9035 88.4661 27.4859 88.4661 28.1628C88.4661 28.8554 88.5911 29.4615 88.8411 29.9809C89.1067 30.4847 89.4817 30.8782 89.966 31.1616C90.4504 31.4292 91.0129 31.563 91.6535 31.563C92.2316 31.563 92.755 31.4685 93.2237 31.2796C93.6924 31.075 94.0986 30.7759 94.4424 30.3824L96.247 32.2005C95.7001 32.8459 95.0283 33.3339 94.2314 33.6644C93.4502 33.995 92.5987 34.1603 91.6769 34.1603Z" fill="black"/>
<path d="M98.9257 33.9242V17.7735H101.996V33.9242H98.9257ZM96.2774 25.2349V22.5195H104.644V25.2349H96.2774Z" fill="black"/>
<path d="M104.965 33.9242V22.5195H108.058V33.9242H104.965Z" fill="black"/>
<path d="M116.988 33.9242V27.3836C116.988 26.7067 116.778 26.1558 116.356 25.7308C115.934 25.3057 115.387 25.0932 114.715 25.0932C114.278 25.0932 113.887 25.1877 113.543 25.3766C113.2 25.5655 112.926 25.8331 112.723 26.1794C112.536 26.5257 112.442 26.9271 112.442 27.3836L111.247 26.7697C111.247 25.8724 111.434 25.0932 111.809 24.4321C112.2 23.7552 112.731 23.2279 113.403 22.8501C114.09 22.4723 114.864 22.2834 115.723 22.2834C116.551 22.2834 117.293 22.4959 117.949 22.9209C118.606 23.3302 119.121 23.8733 119.496 24.5502C119.871 25.2113 120.059 25.9275 120.059 26.6989V33.9242H116.988ZM109.372 33.9242V22.5195H112.442V33.9242H109.372Z" fill="black"/>
<path d="M125.86 38.9772C124.657 38.9772 123.594 38.7568 122.672 38.316C121.751 37.891 121.016 37.285 120.469 36.4979L122.415 34.5381C122.852 35.0576 123.336 35.4511 123.868 35.7187C124.414 36.002 125.071 36.1437 125.836 36.1437C126.789 36.1437 127.539 35.8997 128.086 35.4117C128.649 34.9238 128.93 34.2469 128.93 33.3811V30.524L129.445 28.0211L128.953 25.5183V22.5195H132V33.3339C132 34.4673 131.734 35.4511 131.203 36.2854C130.688 37.1354 129.969 37.7966 129.047 38.2688C128.125 38.741 127.063 38.9772 125.86 38.9772ZM125.719 33.6172C124.703 33.6172 123.789 33.3732 122.977 32.8852C122.165 32.3815 121.524 31.6968 121.055 30.831C120.602 29.9652 120.376 28.9971 120.376 27.9267C120.376 26.8563 120.602 25.896 121.055 25.046C121.524 24.196 122.165 23.527 122.977 23.039C123.789 22.5353 124.703 22.2834 125.719 22.2834C126.563 22.2834 127.305 22.4487 127.946 22.7792C128.602 23.1098 129.117 23.5663 129.492 24.1487C129.867 24.7154 130.07 25.3845 130.102 26.1558V29.7448C130.07 30.5004 129.859 31.1773 129.469 31.7755C129.094 32.3579 128.578 32.8144 127.922 33.145C127.281 33.4598 126.547 33.6172 125.719 33.6172ZM126.328 30.8074C126.891 30.8074 127.375 30.6893 127.781 30.4532C128.203 30.2013 128.531 29.8629 128.766 29.4379C129 28.9971 129.117 28.5012 129.117 27.9503C129.117 27.3836 129 26.8878 128.766 26.4627C128.531 26.0377 128.203 25.7071 127.781 25.471C127.375 25.2192 126.891 25.0932 126.328 25.0932C125.766 25.0932 125.274 25.2192 124.852 25.471C124.43 25.7071 124.102 26.0456 123.868 26.4864C123.633 26.9114 123.516 27.3994 123.516 27.9503C123.516 28.4855 123.633 28.9735 123.868 29.4143C124.102 29.8393 124.43 30.1777 124.852 30.4296C125.274 30.6814 125.766 30.8074 126.328 30.8074Z" fill="black"/>
<path d="M14.8041 19.0938C15.4335 19.0939 15.9439 19.6048 15.9439 20.2351V25.9352C15.9439 26.5654 15.4335 27.0764 14.8041 27.0764H11.9579C14.1592 27.0765 15.9438 28.8636 15.9439 31.0679C15.9439 33.2723 14.1592 35.0593 11.9579 35.0594H1.13972C0.510276 35.0594 0 34.5484 0 33.9181V28.2177C3.94763e-05 27.5875 0.510301 27.0765 1.13972 27.0764H3.98597C1.7846 27.0764 0 25.2894 0 23.085C5.87439e-05 20.8806 1.78463 19.0938 3.98597 19.0938H14.8041Z" fill="#ED80B8"/>
<path d="M30.7834 19.4602C31.5014 18.7412 32.7292 19.2506 32.7292 20.2674V33.9181C32.7292 34.5484 32.2189 35.0593 31.5895 35.0594H17.9251C17.2956 35.0594 16.7853 34.5484 16.7853 33.9181V20.2674C16.7853 19.2507 18.0129 18.7414 18.7309 19.4602L23.9514 24.6877C24.3965 25.1334 25.118 25.1334 25.5631 24.6877L30.7834 19.4602Z" fill="#49A7FF"/>
<path d="M14.8039 2.55869C15.4333 2.55869 15.9436 3.06966 15.9436 3.69998V10.5416C15.9435 14.9504 12.3746 18.5242 7.97193 18.5242C3.56922 18.5242 3.90656e-05 14.9504 0 10.5416V3.69998C0 3.06966 0.510271 2.55869 1.13972 2.55869H14.8039Z" fill="#3BC89C"/>
<path d="M24.4846 2.55869C28.8873 2.55869 32.4565 6.1328 32.4565 10.5416C32.4565 14.9504 28.8873 18.5242 24.4846 18.5242H17.6524C17.023 18.5242 16.5126 18.0132 16.5126 17.3829V10.5416C16.5126 6.13282 20.0819 2.55872 24.4846 2.55869Z" fill="#FDBC28"/>
</svg>
